<svg width="112" height="27" viewBox="0 0 112 27" xmlns="http://www.w3.org/2000/svg">
    <rect id="change1" x="37.7832" width="72.8675" height="27" rx="10" fill="currentColor"/>
    <path id="change2" d="M9.15978 12.305H16.8878V15.295H9.15978V12.305ZM9.43578 21.16H5.70978V5.05997H17.8768V8.04997H9.43578V21.16ZM20.1462 21.16V8.78597H23.7342V21.16H20.1462ZM21.9402 7.06097C21.2809 7.06097 20.7442 6.86931 20.3302 6.48597C19.9162 6.10264 19.7092 5.62731 19.7092 5.05997C19.7092 4.49264 19.9162 4.01731 20.3302 3.63397C20.7442 3.25064 21.2809 3.05897 21.9402 3.05897C22.5996 3.05897 23.1362 3.24297 23.5502 3.61097C23.9642 3.96364 24.1712 4.42364 24.1712 4.99097C24.1712 5.58897 23.9642 6.08731 23.5502 6.48597C23.1516 6.86931 22.6149 7.06097 21.9402 7.06097ZM32.1242 21.344C30.6675 21.344 29.5329 20.976 28.7202 20.24C27.9075 19.4886 27.5012 18.377 27.5012 16.905V6.04897H31.0892V16.859C31.0892 17.3803 31.2272 17.7866 31.5032 18.078C31.7792 18.354 32.1549 18.492 32.6302 18.492C33.1975 18.492 33.6805 18.3386 34.0792 18.032L35.0452 20.562C34.6772 20.8226 34.2325 21.022 33.7112 21.16C33.2052 21.2826 32.6762 21.344 32.1242 21.344ZM25.5922 11.822V9.06197H34.1712V11.822H25.5922Z" fill="currentColor"/>
    <path id="change3" d="M43.826 21.16V5.05997H50.795C52.2363 5.05997 53.4783 5.29764 54.521 5.77297C55.5637 6.23297 56.3687 6.89997 56.936 7.77397C57.5033 8.64797 57.787 9.69064 57.787 10.902C57.787 12.098 57.5033 13.133 56.936 14.007C56.3687 14.881 55.5637 15.5556 54.521 16.031C53.4783 16.491 52.2363 16.721 50.795 16.721H45.896L47.552 15.042V21.16H43.826ZM47.552 15.456L45.896 13.685H50.588C51.738 13.685 52.5967 13.4396 53.164 12.949C53.7313 12.4583 54.015 11.776 54.015 10.902C54.015 10.0126 53.7313 9.32264 53.164 8.83197C52.5967 8.34131 51.738 8.09597 50.588 8.09597H45.896L47.552 6.32497V15.456ZM65.6397 21.344C64.6124 21.344 63.6924 21.1446 62.8797 20.746C62.0824 20.3473 61.4614 19.7416 61.0167 18.929C60.572 18.101 60.3497 17.0506 60.3497 15.778V8.78597H63.9377V15.249C63.9377 16.2763 64.1524 17.0353 64.5817 17.526C65.0264 18.0013 65.6474 18.239 66.4447 18.239C66.9967 18.239 67.4874 18.124 67.9167 17.894C68.346 17.6486 68.6834 17.2806 68.9287 16.79C69.174 16.284 69.2967 15.6553 69.2967 14.904V8.78597H72.8847V21.16H69.4807V17.756L70.1017 18.745C69.6877 19.6036 69.0744 20.2553 68.2617 20.7C67.4644 21.1293 66.5904 21.344 65.6397 21.344ZM76.2087 21.16V4.09397H79.7967V21.16H76.2087ZM87.2897 21.344C86.2317 21.344 85.212 21.2213 84.2307 20.976C83.2647 20.7153 82.498 20.3933 81.9307 20.01L83.1267 17.434C83.694 17.7866 84.361 18.078 85.1277 18.308C85.9097 18.5226 86.6764 18.63 87.4277 18.63C88.2557 18.63 88.8384 18.5303 89.1757 18.331C89.5284 18.1316 89.7047 17.8556 89.7047 17.503C89.7047 17.2116 89.5667 16.997 89.2907 16.859C89.03 16.7056 88.6774 16.5906 88.2327 16.514C87.788 16.4373 87.2974 16.3606 86.7607 16.284C86.2394 16.2073 85.7104 16.1076 85.1737 15.985C84.637 15.847 84.1464 15.6476 83.7017 15.387C83.257 15.1263 82.8967 14.7736 82.6207 14.329C82.36 13.8843 82.2297 13.3093 82.2297 12.604C82.2297 11.822 82.452 11.132 82.8967 10.534C83.3567 9.93597 84.016 9.46831 84.8747 9.13097C85.7334 8.77831 86.7607 8.60197 87.9567 8.60197C88.8 8.60197 89.6587 8.69397 90.5327 8.87797C91.4067 9.06197 92.135 9.33031 92.7177 9.68297L91.5217 12.236C90.9237 11.8833 90.318 11.6456 89.7047 11.523C89.1067 11.385 88.524 11.316 87.9567 11.316C87.1594 11.316 86.5767 11.4233 86.2087 11.638C85.8407 11.8526 85.6567 12.1286 85.6567 12.466C85.6567 12.7726 85.787 13.0026 86.0477 13.156C86.3237 13.3093 86.684 13.432 87.1287 13.524C87.5734 13.616 88.0564 13.7003 88.5777 13.777C89.1144 13.8383 89.651 13.938 90.1877 14.076C90.7244 14.214 91.2074 14.4133 91.6367 14.674C92.0814 14.9193 92.4417 15.2643 92.7177 15.709C92.9937 16.1383 93.1317 16.7056 93.1317 17.411C93.1317 18.1776 92.9017 18.86 92.4417 19.458C91.9817 20.0406 91.3147 20.5006 90.4407 20.838C89.582 21.1753 88.5317 21.344 87.2897 21.344ZM101.486 21.344C100.076 21.344 98.8338 21.068 97.7605 20.516C96.7025 19.964 95.8821 19.2126 95.2995 18.262C94.7168 17.296 94.4255 16.1996 94.4255 14.973C94.4255 13.731 94.7091 12.6346 95.2765 11.684C95.8591 10.718 96.6488 9.96664 97.6455 9.42997C98.6421 8.87797 99.7691 8.60197 101.026 8.60197C102.238 8.60197 103.326 8.86264 104.292 9.38397C105.274 9.88997 106.048 10.626 106.615 11.592C107.183 12.5426 107.466 13.685 107.466 15.019C107.466 15.157 107.459 15.318 107.443 15.502C107.428 15.6706 107.413 15.8316 107.397 15.985H97.3465V13.892H105.511L104.131 14.513C104.131 13.869 104.001 13.3093 103.74 12.834C103.48 12.3586 103.119 11.9906 102.659 11.73C102.199 11.454 101.663 11.316 101.049 11.316C100.436 11.316 99.8918 11.454 99.4165 11.73C98.9565 11.9906 98.5961 12.3663 98.3355 12.857C98.0748 13.3323 97.9445 13.8996 97.9445 14.559V15.111C97.9445 15.7856 98.0901 16.3836 98.3815 16.905C98.6881 17.411 99.1098 17.802 99.6465 18.078C100.198 18.3386 100.842 18.469 101.578 18.469C102.238 18.469 102.813 18.3693 103.303 18.17C103.809 17.9706 104.269 17.6716 104.683 17.273L106.592 19.343C106.025 19.987 105.312 20.4853 104.453 20.838C103.595 21.1753 102.606 21.344 101.486 21.344Z" fill="white"/>
</svg>
